<svg width="38" height="16" viewBox="0 0 38 16" fill="none" xmlns="http://www.w3.org/2000/svg">
<path d="M8.34667 16H4.13333L0.413333 0.373333H4.85333L5.56 5.76L6.61333 10.9867L7.96 5.76L8.30667 4.33333L7.28 0.373333H11.64L12.6 5.76L13.7733 10.9867L14.5067 5.76L15.2933 0.373333H19.3467L15.9067 16H11.36L9.72 9.72L8.34667 16ZM26.081 16H21.8677L18.1477 0.373333H22.5877L23.2944 5.76L24.3477 10.9867L25.6944 5.76L26.041 4.33333L25.0144 0.373333H29.3744L30.3344 5.76L31.5077 10.9867L32.241 5.76L33.0277 0.373333H37.081L33.641 16H29.0944L27.4544 9.72L26.081 16Z" fill="#E7F7FF"/>
</svg>
